<svg width="19" height="19" viewBox="0 0 19 19" fill="none" xmlns="http://www.w3.org/2000/svg">
    <path d="M4.26433 16.9361L4 16.6961C4.07408 16.6389 4.75287 16.2085 4.44244 16.3323L7.65566 14.7649C7.86813 14.6398 8 14.4004 8 14.14V13.2164C7.81746 12.9566 6.96116 11.8113 6.72113 10.7986C6.47043 10.5774 6.32404 10.2497 6.32404 9.8983V8.76691C6.32404 8.49021 6.41857 8.22181 6.58689 8.01085L6.57501 7.79936C6.5596 7.63404 6.49322 6.2933 7.12116 5.52223C7.6673 4.85106 8.30251 4.5 9.5 4.5C10.4881 4.5 11.3721 4.83989 11.9183 5.51138C12.5462 6.28245 12.5035 7.62255 12.4881 7.7885L12.5 8C12.6686 8.21096 12.7628 8.47936 12.7628 8.75606V9.88745C12.7628 10.3422 12.5204 10.745 12.145 10.9371C11.955 11.5285 11.5041 12.4303 11.1793 12.9244C11.1159 13.0204 11.0545 13.1079 10.9965 13.1851V14.1288C10.9965 14.3998 11.1363 14.6436 11.3615 14.7649L14.5 16.3323C14.5898 16.3808 14.9129 16.6555 15 16.7203L14.7289 16.9641C14.7019 16.9887 14.6723 17.0095 14.6447 17.0334C14.5205 17.1422 14.3928 17.2463 14.2627 17.3471C14.2085 17.3893 14.1548 17.4317 14.1 17.4719C13.9477 17.5843 13.7909 17.6899 13.6315 17.7911C13.5883 17.8185 13.545 17.8453 13.5014 17.8718C13.3263 17.9781 13.1476 18.078 12.9648 18.1705C12.9422 18.182 12.9194 18.1926 12.8969 18.2037C12.2859 18.5056 11.6345 18.7281 10.9538 18.8596C10.9379 18.8629 10.9217 18.866 10.9057 18.869L10.8984 18.8704C10.6859 18.9097 10.4708 18.9406 10.253 18.962C10.2254 18.9646 10.1979 18.9662 10.1703 18.9687C9.9528 18.9876 9.73381 19 9.51185 19C9.28782 19 9.06676 18.9876 8.84806 18.9681C8.82109 18.9655 8.79442 18.9639 8.76775 18.9614C8.54817 18.94 8.33125 18.9081 8.1167 18.8682L8.06218 18.8577C7.37112 18.7233 6.71029 18.4957 6.09124 18.1859C6.07732 18.1788 6.06309 18.1724 6.04916 18.1654C5.85921 18.069 5.67358 17.964 5.49193 17.8526C5.45552 17.8303 5.41911 17.808 5.383 17.785C5.21705 17.6794 5.05466 17.568 4.89642 17.4505C4.84752 17.4141 4.79952 17.3768 4.75151 17.3395C4.60334 17.2243 4.45784 17.1052 4.31738 16.9798C4.30019 16.9645 4.28152 16.9517 4.26433 16.9361Z" fill="white"/>
    <path fill-rule="evenodd" clip-rule="evenodd" d="M9.5 18C14.1944 18 18 14.1944 18 9.5C18 4.80558 14.1944 1 9.5 1C4.80558 1 1 4.80558 1 9.5C1 14.1944 4.80558 18 9.5 18ZM9.5 19C14.7467 19 19 14.7467 19 9.5C19 4.25329 14.7467 0 9.5 0C4.25329 0 0 4.25329 0 9.5C0 14.7467 4.25329 19 9.5 19Z" fill="white"/>
</svg>
