<svg xmlns="http://www.w3.org/2000/svg" width="239" height="55" viewBox="0 0 239 55" fill="none">
<g opacity="0.5">
<path d="M178.136 15.1348H180.033C181.118 15.1348 181.796 15.9434 181.796 16.8194C181.796 17.6954 181.118 18.5041 180.033 18.5041H179.084V20.593H178.136V15.1348ZM179.966 17.6954C180.44 17.6954 180.711 17.3585 180.711 16.8194C180.711 16.2803 180.44 15.9434 179.966 15.9434H179.084V17.6954H179.966Z" fill="white"/>
<path d="M184.439 15.1348H185.591L187.286 20.593H186.269L185.862 19.1779H184.168L183.761 20.593H182.744L184.439 15.1348ZM185.659 18.3693L185.252 17.0216C185.184 16.752 185.117 16.4151 185.049 16.1456C184.981 16.4825 184.913 16.8194 184.846 17.0216L184.439 18.3693H185.659Z" fill="white"/>
<path d="M188.98 15.1348H192.166V15.9434H189.929V17.2237H190.946C192.03 17.2237 192.708 17.965 192.708 18.9084C192.708 19.8518 192.03 20.593 190.946 20.593H188.98V15.1348ZM190.946 19.717C191.42 19.717 191.691 19.3801 191.691 18.841C191.691 18.3019 191.42 18.0323 190.946 18.0323H189.997V19.717H190.946Z" fill="white"/>
<path d="M194.402 17.2237C194.402 15.7413 195.351 15 196.503 15C197.656 15 198.604 15.7413 198.604 17.2237V18.4367C198.604 19.9191 197.656 20.6604 196.503 20.6604C195.351 20.6604 194.402 19.9191 194.402 18.4367V17.2237ZM196.503 19.8518C197.181 19.8518 197.656 19.4474 197.656 18.3693V17.2911C197.656 16.2803 197.181 15.8086 196.503 15.8086C195.826 15.8086 195.351 16.213 195.351 17.2911V18.3693C195.351 19.4474 195.826 19.8518 196.503 19.8518Z" fill="white"/>
<path d="M201.519 15.9434H200.096V15.1348H203.891V15.9434H202.468V20.593H201.451V15.9434H201.519Z" fill="white"/>
<path d="M206.399 15.1348H207.551L209.246 20.593H208.229L207.822 19.1779H206.128L205.721 20.593H204.704L206.399 15.1348ZM207.619 18.3693L207.212 17.0216C207.144 16.752 207.077 16.4151 207.009 16.1456C206.941 16.4825 206.873 16.8194 206.806 17.0216L206.399 18.3693H207.619Z" fill="white"/>
<path d="M213.583 20.593V15.1348H215.346C216.498 15.1348 217.176 15.7413 217.176 16.6173C217.176 17.1564 216.904 17.4933 216.498 17.6954C217.108 17.8976 217.379 18.3693 217.379 18.9084C217.379 19.717 216.633 20.5256 215.346 20.5256H213.583V20.593ZM215.21 17.3585C215.752 17.3585 216.091 17.089 216.091 16.6173C216.091 16.213 215.82 15.9434 215.278 15.9434H214.532V17.3585H215.21ZM215.278 19.717C215.956 19.717 216.294 19.3801 216.294 18.9084C216.294 18.4367 216.023 18.0997 215.346 18.0997H214.532V19.6496H215.278V19.717Z" fill="white"/>
<path d="M178 26.9272C178 25.4448 178.949 24.7035 180.101 24.7035C181.253 24.7035 182.202 25.4448 182.202 26.9272V28.1402C182.202 29.6226 181.253 30.3639 180.101 30.3639C178.949 30.3639 178 29.6226 178 28.1402V26.9272ZM180.101 29.5553C180.779 29.5553 181.253 29.151 181.253 28.0728V26.9946C181.253 25.9838 180.779 25.5121 180.101 25.5121C179.423 25.5121 178.949 25.9165 178.949 26.9946V28.0728C178.949 29.151 179.423 29.5553 180.101 29.5553Z" fill="white"/>
<path d="M184.1 24.8383H187.286V25.6469H185.049V26.9272H186.066C187.15 26.9272 187.828 27.6685 187.828 28.6119C187.828 29.5553 187.15 30.2965 186.066 30.2965H184.1V24.8383ZM186.066 29.4205C186.54 29.4205 186.811 29.0836 186.811 28.5445C186.811 28.0054 186.54 27.7359 186.066 27.7359H185.117V29.4205H186.066Z" fill="white"/>
<path d="M189.522 24.8383H191.42C192.504 24.8383 193.182 25.6469 193.182 26.5229C193.182 27.3989 192.504 28.2075 191.42 28.2075H190.471V30.2965H189.522V24.8383ZM191.42 27.3989C191.894 27.3989 192.166 27.062 192.166 26.5229C192.166 25.9838 191.894 25.6469 191.42 25.6469H190.539V27.3989H191.42Z" fill="white"/>
<path d="M195.893 24.8383H197.046L198.74 30.2965H197.723L197.317 28.8814H195.622L195.216 30.2965H194.199L195.893 24.8383ZM197.046 28.0728L196.639 26.7251C196.571 26.4555 196.503 26.1186 196.436 25.8491C196.368 26.186 196.3 26.5229 196.232 26.7251L195.826 28.0728H197.046Z" fill="white"/>
<path d="M200.231 30.0944L200.434 29.2857C200.841 29.4205 201.383 29.5553 201.79 29.5553C202.4 29.5553 202.874 29.2183 202.874 28.6793C202.874 28.2076 202.671 27.8706 201.926 27.8706H201.316L201.248 27.062H201.79C202.4 27.062 202.671 26.6577 202.671 26.186C202.671 25.8491 202.4 25.5121 201.79 25.5121C201.383 25.5121 200.977 25.6469 200.57 25.7817L200.367 24.9731C200.841 24.7709 201.383 24.6361 202.061 24.6361C203.078 24.6361 203.756 25.2426 203.756 26.1186C203.756 26.6577 203.484 27.1294 203.01 27.3315C203.62 27.5337 203.891 28.0054 203.891 28.6119C203.891 29.69 203.078 30.3639 201.993 30.3639C201.383 30.3639 200.638 30.2291 200.231 30.0944Z" fill="white"/>
<path d="M205.586 26.9272C205.586 25.4448 206.534 24.7035 207.687 24.7035C208.839 24.7035 209.788 25.4448 209.788 26.9272V28.1402C209.788 29.6226 208.839 30.3639 207.687 30.3639C206.534 30.3639 205.586 29.6226 205.586 28.1402V26.9272ZM207.687 29.5553C208.364 29.5553 208.839 29.151 208.839 28.0728V26.9946C208.839 25.9838 208.364 25.5121 207.687 25.5121C207.009 25.5121 206.534 25.9165 206.534 26.9946V28.0728C206.534 29.151 207.009 29.5553 207.687 29.5553Z" fill="white"/>
<path d="M211.686 30.2965V24.8383H213.448C214.6 24.8383 215.278 25.4448 215.278 26.3208C215.278 26.8598 215.007 27.1968 214.6 27.3989C215.21 27.6011 215.481 28.0728 215.481 28.6119C215.481 29.4205 214.736 30.2291 213.448 30.2291H211.686V30.2965ZM213.312 27.062C213.854 27.062 214.193 26.7925 214.193 26.3208C214.193 25.9165 213.922 25.6469 213.38 25.6469H212.634V27.062H213.312ZM213.448 29.4205C214.126 29.4205 214.464 29.0836 214.464 28.6119C214.464 28.1402 214.193 27.8032 213.516 27.8032H212.702V29.3531H213.448V29.4205Z" fill="white"/>
<path d="M218.463 24.8383H219.616L221.31 30.2965H220.293L219.887 28.8814H218.192L217.786 30.2965H216.769L218.463 24.8383ZM219.683 28.0728L219.277 26.7251C219.209 26.4555 219.141 26.1186 219.073 25.8491C219.006 26.186 218.938 26.5229 218.87 26.7251L218.463 28.0728H219.683Z" fill="white"/>
<path d="M223.004 24.8383H223.953V27.1294H225.919V24.8383H226.936V30.2965H225.919V27.938H223.953V30.2965H223.004V24.8383Z" fill="white"/>
<path d="M228.969 24.8383H229.918V27.6685C229.918 27.8706 229.918 28.2075 229.918 28.4771L232.154 24.8383H232.968V30.2965H232.019V27.5337C232.019 27.3315 232.019 26.9946 232.019 26.7251L229.782 30.2965H228.969V24.8383Z" fill="white"/>
<path d="M235.001 24.8383H235.95V27.6685C235.95 27.8706 235.95 28.2075 235.95 28.4771L238.187 24.8383H239V30.2965H238.051V27.5337C238.051 27.3315 238.051 26.9946 238.051 26.7251L235.814 30.2965H235.001V24.8383Z" fill="white"/>
<path d="M178.136 34.5418H179.084V37.372C179.084 37.5741 179.084 37.9111 179.084 38.1806L181.321 34.5418H182.134V40H181.186V37.2372C181.186 37.035 181.186 36.6981 181.186 36.4286L178.949 40H178.136V34.5418Z" fill="white"/>
<path d="M186.879 34.5418H187.828V36.8329H189.793V34.5418H190.81V40H189.793V37.6415H187.896V40H186.947V34.5418H186.879Z" fill="white"/>
<path d="M194.267 34.5418H195.419L197.113 40H196.097L195.69 38.5849H193.996L193.589 40H192.572L194.267 34.5418ZM195.419 37.7763L195.012 36.4286C194.944 36.159 194.877 35.8221 194.809 35.5526C194.741 35.8895 194.673 36.2264 194.606 36.4286L194.199 37.7763H195.419Z" fill="white"/>
<path d="M198.943 39.124H199.96C200.299 39.124 200.502 38.9218 200.57 38.4501L200.638 38.1132H200.163C199.214 38.1132 198.74 37.5067 198.604 36.6307L198.266 34.4744H199.214L199.553 36.5633C199.621 37.035 199.757 37.3046 200.163 37.3046H200.773L201.248 34.4744H202.264L201.519 38.5849C201.383 39.3935 200.977 40 200.096 40H199.011L198.943 39.124Z" fill="white"/>
<path d="M204.976 34.5418V36.9003L205.857 36.6307C206.196 36.496 206.331 36.2938 206.467 35.9569L206.873 34.5418H207.822L207.348 36.2264C207.212 36.7655 207.009 37.0351 206.602 37.1698L208.026 40H206.873L205.653 37.5068L204.908 37.7763V39.9326H203.959V34.5418H204.976Z" fill="white"/>
<path d="M209.788 34.5418H212.906V35.3504H210.737V36.8329H212.567L212.499 37.6415H210.737V39.124H212.973V39.9326H209.788V34.5418Z" fill="white"/>
</g>
<path d="M27.5 55C42.6878 55 55 42.6878 55 27.5C55 12.3122 42.6878 0 27.5 0C12.3122 0 0 12.3122 0 27.5C0 42.6878 12.3122 55 27.5 55Z" fill="#0092D7"/>
<path fill-rule="evenodd" clip-rule="evenodd" d="M104.4 11.2001V10.6001L91.2 8.6001L79 10.6001V11.2001L86.1 13.1001C86.1 13.3001 86.1 13.5001 86.1 13.5001C84.1 14.1001 83.2 16.7001 83.2 16.7001C83.2 16.7001 85.9 16.6001 87.8 17.3001C89.7 18.0001 91.3 19.3001 91.3 19.3001C91.3 19.3001 93.5 17.8001 95.7 17.1001C97.4 16.5001 99.2 16.8001 99.2 16.7001C99.1 14.8001 96.3 13.5001 96.3 13.5001V13.0001L100.9 12.0001V12.9001C100.7 13.0001 100.5 13.2001 100.5 13.5001V18.6001H100.7V19.1001C100.8 19.2001 100.8 19.2001 100.9 19.2001V17.6001H101.1V18.9001H101.3V19.1001H101.5V18.5001H101.7V19.0001C101.8 18.9001 101.9 18.7001 101.9 18.5001V13.3001C101.9 13.0001 101.7 12.8001 101.5 12.7001V11.7001L104.4 11.2001Z" fill="#0092D7"/>
<path d="M24.0999 14.4V19.1H14.2999V24.8H22.4999L22.2999 29.4H14.2999V35.3H24.3999V40H8.69995V14.4H24.0999Z" fill="white"/>
<path d="M29 16.2C32.3 14.9 35.7 14 38.7 14C43.9 14 48.4 17.5 48.4 23.8V30.7C48.4 37 44.7 40.2 38.7 40.2H29V16.2ZM42.9 24.1C42.9 20.3 41.2 18.6 38.8 18.6C37.4 18.6 36.1 18.8 34.7 19.3V35.3H38.8C41.7 35.3 42.9 34 42.9 30.1V24.1Z" fill="white"/>
<path d="M62.7 12.2H67.0999V20.9C67.9999 20.3 69.4999 19.7999 71.0999 19.7999C75.0999 19.7999 78.4 22 78.4 27.7V39.9999H74V27.9C74 24.6 72.6999 23.5999 70.6999 23.5999C69.4999 23.5999 68.2999 23.9999 67.1999 24.5999V39.9999H62.7999V12.2H62.7Z" fill="white"/>
<path d="M83.5 20.2999H87.9V32.2C87.9 35.2 89.3 36.7 91.3 36.7C93.3 36.7 94.7 35.2 94.7 32.2V20.2999H99.1V32.4C99.1 37.7 95.5 40.4999 91.3 40.4999C87 40.4999 83.5 37.7 83.5 32.4V20.2999Z" fill="white"/>
<path d="M104.3 27.9C104.3 22.6 107.8 19.7999 112.2 19.7999C116.5 19.7999 120 22.6 120 27.9V39.9999H115.6V28.0999C115.6 25.0999 114.3 23.5999 112.3 23.5999C110.2 23.5999 108.8 25.0999 108.8 28.0999V39.9999H104.4V27.9H104.3Z" fill="white"/>
<path d="M123.8 23.4L123 20.2999H126.3V14.7999L130.8 14.0999V20.2999H134.3V23.4H130.8V39.9999H126.3V23.4H123.8Z" fill="white"/>
<path d="M136.8 27.9C136.8 22.6 140.3 19.7 144.6 19.7C148.9 19.7 152.4 22.6999 152.4 27.0999V31.2999H141.2V31.9999C141.2 35.0999 142.7 36.4999 145.2 36.4999C147.1 36.4999 148.8 36.0999 150.6 35.5999L151.5 39.2C149.4 40 147.7 40.2999 145.3 40.2999C140.3 40.2999 136.9 37.4 136.9 31.9V27.9H136.8ZM148 28.0999V27.2C148 25.1 146.7 23.5999 144.6 23.5999C142.6 23.5999 141.2 24.9999 141.2 27.4999V28.0999H148Z" fill="white"/>
<path d="M156.9 27.2999C156.9 22.7999 160.3 19.7999 164.7 19.7999C165.8 19.7999 167 19.9999 167.9 20.2999L167 23.9999C166.4 23.7999 165.4 23.7 164.6 23.7C162.5 23.7 161.2 25.1999 161.2 27.2999V39.9999H156.8V27.2999H156.9Z" fill="white"/>
</svg>