<svg width="170" height="55" viewBox="0 0 170 55" fill="none" xmlns="http://www.w3.org/2000/svg">
    <path d="M27.5 55C42.6878 55 55 42.6878 55 27.5C55 12.3122 42.6878 0 27.5 0C12.3122 0 0 12.3122 0 27.5C0 42.6878 12.3122 55 27.5 55Z"
          fill="#0092D7"/>
    <path d="M8.79999 14.4H24.1V19.1H14.3V24.8H22.5L22.3 29.4H14.3V35.3H24.4V40H8.70001V14.4H8.79999Z" fill="white"/>
    <path d="M29 40.1V16.2C32.3 14.9 35.7 14 38.7 14C43.9 14 48.4 17.5 48.4 23.8V30.7C48.4 37 44.7 40.2 38.7 40.2H29V40.1ZM42.9 24.1C42.9 20.3 41.2 18.6 38.8 18.6C37.4 18.6 36.1 18.8 34.7 19.3V35.3H38.8C41.7 35.3 42.9 34 42.9 30.1V24.1Z"
          fill="white"/>
    <path d="M62.7 12.2H67.1V20.9C68 20.3 69.5 19.7999 71.1 19.7999C75.1 19.7999 78.4 22 78.4 27.7V39.9999H74V27.9C74 24.6 72.7 23.5999 70.7 23.5999C69.5 23.5999 68.3 23.9999 67.2 24.5999V39.9999H62.8V12.2H62.7Z"
          fill="black"/>
    <path d="M83.5 20.2999H87.9V32.2C87.9 35.2 89.3 36.7 91.3 36.7C93.3 36.7 94.7 35.2 94.7 32.2V20.2999H99.1V32.4C99.1 37.7 95.5 40.4999 91.3 40.4999C87 40.4999 83.5 37.7 83.5 32.4V20.2999Z"
          fill="black"/>
    <path d="M104.3 27.9C104.3 22.6 107.8 19.7999 112.2 19.7999C116.5 19.7999 120 22.6 120 27.9V39.9999H115.6V28.0999C115.6 25.0999 114.3 23.5999 112.3 23.5999C110.2 23.5999 108.8 25.0999 108.8 28.0999V39.9999H104.4V27.9H104.3Z"
          fill="black"/>
    <path d="M126.2 23.4H123.8L123 20.2999H126.3V14.7999L130.8 14.0999V20.2999H134.3V23.4H130.8V39.9999H126.3V23.4H126.2Z"
          fill="black"/>
    <path d="M136.8 27.9C136.8 22.6 140.3 19.7 144.6 19.7C148.9 19.7 152.4 22.6999 152.4 27.0999V31.2999H141.2V31.9999C141.2 35.0999 142.7 36.4999 145.2 36.4999C147.1 36.4999 148.8 36.0999 150.6 35.5999L151.5 39.2C149.4 40 147.7 40.2999 145.3 40.2999C140.3 40.2999 136.9 37.4 136.9 31.9V27.9H136.8ZM148 28.0999V27.2C148 25.1 146.7 23.5999 144.6 23.5999C142.6 23.5999 141.2 24.9999 141.2 27.4999V28.0999H148Z"
          fill="black"/>
    <path d="M156.9 27.2999C156.9 22.7999 160.3 19.7999 164.7 19.7999C165.8 19.7999 167 19.9999 167.9 20.2999L167 23.9999C166.4 23.7999 165.4 23.7 164.6 23.7C162.5 23.7 161.2 25.1999 161.2 27.2999V39.9999H156.8V27.2999H156.9Z"
          fill="black"/>
    <path fill-rule="evenodd" clip-rule="evenodd"
          d="M104.4 11.2001V10.6001L91.2 8.6001L79 10.6001V11.2001L86.1 13.1001C86.1 13.3001 86.1 13.5001 86.1 13.5001C84.1 14.1001 83.2 16.7001 83.2 16.7001C83.2 16.7001 85.9 16.6001 87.8 17.3001C89.7 18.0001 91.3 19.3001 91.3 19.3001C91.3 19.3001 93.5 17.8001 95.7 17.1001C97.4 16.5001 99.2 16.8001 99.2 16.7001C99.1 14.8001 96.3 13.5001 96.3 13.5001V13.0001L100.9 12.0001V12.9001C100.7 13.0001 100.5 13.2001 100.5 13.5001V18.6001H100.7V19.1001C100.8 19.2001 100.8 19.2001 100.9 19.2001V17.6001H101.1V18.9001H101.3V19.1001H101.5V18.5001H101.7V19.0001C101.8 18.9001 101.9 18.7001 101.9 18.5001V13.3001C101.9 13.0001 101.7 12.8001 101.5 12.7001V11.7001L104.4 11.2001Z"
          fill="#0092D7"/>
</svg>
