<svg
        xmlns="http://www.w3.org/2000/svg"
        viewBox="0 0 16 17"
        width="16px" height="17px">
    <path fill-rule="evenodd" fill="#0092d7"
          d="M15.414,5.797 L14.707,6.506 L10.464,2.251 L11.171,1.542 C11.952,0.758 13.219,0.758 14.000,1.542 L15.414,2.960 C16.194,3.743 16.194,5.013 15.414,5.797 ZM5.514,14.306 C5.319,14.502 5.319,14.819 5.514,15.015 C5.710,15.212 6.026,15.212 6.221,15.015 L14.000,7.215 L13.292,6.506 L5.514,14.306 ZM1.978,10.761 C1.783,10.956 1.783,11.274 1.978,11.470 C2.174,11.665 2.490,11.665 2.685,11.470 L10.464,3.670 L9.757,2.960 L1.978,10.761 ZM11.170,4.378 L3.392,12.179 C3.002,12.569 3.003,13.205 3.392,13.597 C3.783,13.988 4.416,13.990 4.807,13.596 L12.585,5.797 L11.170,4.378 ZM4.805,15.722 C4.566,15.482 4.451,15.177 4.408,14.864 C4.306,14.880 4.204,14.894 4.099,14.894 C3.565,14.894 3.063,14.685 2.685,14.306 C2.307,13.926 2.099,13.423 2.099,12.888 C2.099,12.790 2.114,12.695 2.128,12.600 C1.805,12.556 1.506,12.414 1.271,12.179 C1.249,12.156 1.241,12.126 1.221,12.101 L-0.000,17.000 L4.872,15.777 C4.850,15.757 4.826,15.742 4.805,15.722 Z"/>
</svg>
